# xmcd CD database file
#
# Track frame offsets:
#	187
#	24885
#	36690
#	57127
#	68052
#	82352
#	99635
#	117060
#	134337
#	148630
#	161520
#
# Disc length: 2446 seconds
#
# Revision: 8
# Processed by: cddbd v1.5.2PL0 Copyright (c) Steve Scherf et al.
# Submitted via: CDex 1.51
#
DISCID=98098c0b
DTITLE=The Notting Hillbillies - Missing... Presumed Having A Good Time
DYEAR=1990
DGENRE=Rock
TTITLE0=Railroad Worksong
TTITLE1=Bewildered
TTITLE2=Your Own Sweet Way
TTITLE3=Run Me Down
TTITLE4=One Way Gal
TTITLE5=Blues Stay Away From Me
TTITLE6=Will You Miss Me
TTITLE7=Please Baby
TTITLE8=Weapon Of Prayer
TTITLE9=That's Where I Belong
TTITLE10=Feel Like Going Home
EXTD=Missing YEAR: 1990
EXTT0=Missing
EXTT1=Missing
EXTT2=Missing
EXTT3=Missing
EXTT4=Missing
EXTT5=Missing
EXTT6=Missing
EXTT7=Missing
EXTT8=Missing
EXTT9=Missing
EXTT10=Missing
PLAYORDER=
